<mxfile>
    <diagram id="w29LVmeI__rr4KUO9gQJ" name="Page-1">
        <mxGraphModel dx="1186" dy="709" grid="1" gridSize="10" guides="1" tooltips="1" connect="1" arrows="1" fold="1" page="1" pageScale="1" pageWidth="850" pageHeight="1100" math="0" shadow="0">
            <root>
                <mxCell id="0"/>
                <mxCell id="1" parent="0"/>
                <mxCell id="2" value="Broker" style="rounded=1;whiteSpace=wrap;html=1;fontSize=17;fillColor=#0050ef;strokeColor=#001DBC;fontColor=#ffffff;sketch=0;" vertex="1" parent="1">
                    <mxGeometry x="930" y="200" width="100" height="80" as="geometry"/>
                </mxCell>
                <mxCell id="3" value="SimpleConsumer" style="rounded=1;whiteSpace=wrap;html=1;fontSize=18;fillColor=#008a00;strokeColor=#005700;fontColor=#ffffff;" vertex="1" parent="1">
                    <mxGeometry x="10" y="200" width="150" height="80" as="geometry"/>
                </mxCell>
                <mxCell id="5" value="" style="endArrow=classic;startArrow=classic;html=1;fontSize=18;curved=1;exitX=1;exitY=0;exitDx=0;exitDy=0;entryX=0;entryY=0;entryDx=0;entryDy=0;sketch=1;" edge="1" parent="1" source="3" target="2">
                    <mxGeometry width="50" height="50" relative="1" as="geometry">
                        <mxPoint x="400" y="260" as="sourcePoint"/>
                        <mxPoint x="450" y="210" as="targetPoint"/>
                        <Array as="points">
                            <mxPoint x="550" y="-60"/>
                        </Array>
                    </mxGeometry>
                </mxCell>
                <mxCell id="6" value="TopicMetadataRequest &amp;lt;-&amp;gt; TopicMetadataResponse" style="text;html=1;strokeColor=none;fillColor=none;align=center;verticalAlign=middle;whiteSpace=wrap;rounded=0;fontSize=18;" vertex="1" parent="1">
                    <mxGeometry x="315" y="120" width="490" height="30" as="geometry"/>
                </mxCell>
                <mxCell id="8" value="" style="endArrow=classic;startArrow=classic;html=1;fontSize=18;exitX=1;exitY=0.5;exitDx=0;exitDy=0;entryX=0;entryY=0.5;entryDx=0;entryDy=0;curved=1;sketch=1;" edge="1" parent="1" source="3" target="2">
                    <mxGeometry width="50" height="50" relative="1" as="geometry">
                        <mxPoint x="400" y="260" as="sourcePoint"/>
                        <mxPoint x="450" y="210" as="targetPoint"/>
                        <Array as="points">
                            <mxPoint x="570" y="190"/>
                        </Array>
                    </mxGeometry>
                </mxCell>
                <mxCell id="9" value="ConsumerMetadataRequest &amp;lt;-&amp;gt; ConsumerMetadataResponse" style="text;html=1;strokeColor=none;fillColor=none;align=center;verticalAlign=middle;whiteSpace=wrap;rounded=0;fontSize=18;sketch=0;" vertex="1" parent="1">
                    <mxGeometry x="295" y="40" width="530" height="30" as="geometry"/>
                </mxCell>
                <mxCell id="10" value="FetchRequest &amp;lt;-&amp;gt; FetchResponse" style="text;html=1;strokeColor=none;fillColor=none;align=center;verticalAlign=middle;whiteSpace=wrap;rounded=0;fontSize=18;" vertex="1" parent="1">
                    <mxGeometry x="295" y="430" width="530" height="30" as="geometry"/>
                </mxCell>
                <mxCell id="11" value="OffsetRequest &amp;lt;-&amp;gt; OffsetResponse" style="text;html=1;strokeColor=none;fillColor=none;align=center;verticalAlign=middle;whiteSpace=wrap;rounded=0;fontSize=18;" vertex="1" parent="1">
                    <mxGeometry x="295" y="280" width="530" height="30" as="geometry"/>
                </mxCell>
                <mxCell id="12" value="OffsetCommitRequest &amp;lt;-&amp;gt; OffsetCommitResponse" style="text;html=1;strokeColor=none;fillColor=none;align=center;verticalAlign=middle;whiteSpace=wrap;rounded=0;fontSize=18;" vertex="1" parent="1">
                    <mxGeometry x="295" y="190" width="530" height="30" as="geometry"/>
                </mxCell>
                <mxCell id="13" value="OffsetFetchRequest &amp;lt;-&amp;gt; OffsetFetchResponse" style="text;html=1;strokeColor=none;fillColor=none;align=center;verticalAlign=middle;whiteSpace=wrap;rounded=0;fontSize=18;" vertex="1" parent="1">
                    <mxGeometry x="295" y="360" width="530" height="30" as="geometry"/>
                </mxCell>
                <mxCell id="14" value="" style="endArrow=classic;startArrow=classic;html=1;fontSize=18;exitX=1;exitY=1;exitDx=0;exitDy=0;entryX=0;entryY=1;entryDx=0;entryDy=0;curved=1;sketch=1;" edge="1" parent="1" source="3" target="2">
                    <mxGeometry width="50" height="50" relative="1" as="geometry">
                        <mxPoint x="430" y="420" as="sourcePoint"/>
                        <mxPoint x="480" y="370" as="targetPoint"/>
                        <Array as="points">
                            <mxPoint x="570" y="570"/>
                        </Array>
                    </mxGeometry>
                </mxCell>
                <mxCell id="15" value="" style="endArrow=classic;startArrow=classic;html=1;fontSize=18;exitX=1;exitY=0.75;exitDx=0;exitDy=0;entryX=0;entryY=0.75;entryDx=0;entryDy=0;curved=1;sketch=1;" edge="1" parent="1" source="3" target="2">
                    <mxGeometry width="50" height="50" relative="1" as="geometry">
                        <mxPoint x="430" y="380" as="sourcePoint"/>
                        <mxPoint x="480" y="330" as="targetPoint"/>
                        <Array as="points">
                            <mxPoint x="550" y="440"/>
                        </Array>
                    </mxGeometry>
                </mxCell>
                <mxCell id="16" value="" style="endArrow=classic;startArrow=classic;html=1;fontSize=18;exitX=1;exitY=0.25;exitDx=0;exitDy=0;entryX=0;entryY=0.25;entryDx=0;entryDy=0;curved=1;sketch=1;" edge="1" parent="1" source="3" target="2">
                    <mxGeometry width="50" height="50" relative="1" as="geometry">
                        <mxPoint x="430" y="380" as="sourcePoint"/>
                        <mxPoint x="480" y="330" as="targetPoint"/>
                        <Array as="points">
                            <mxPoint x="560" y="80"/>
                        </Array>
                    </mxGeometry>
                </mxCell>
                <mxCell id="17" value="" style="endArrow=classic;startArrow=classic;html=1;fontSize=18;exitX=1;exitY=0.5;exitDx=0;exitDy=0;entryX=0;entryY=0.5;entryDx=0;entryDy=0;curved=1;sketch=1;" edge="1" parent="1" source="3" target="2">
                    <mxGeometry width="50" height="50" relative="1" as="geometry">
                        <mxPoint x="430" y="390" as="sourcePoint"/>
                        <mxPoint x="480" y="340" as="targetPoint"/>
                        <Array as="points">
                            <mxPoint x="550" y="310"/>
                        </Array>
                    </mxGeometry>
                </mxCell>
            </root>
        </mxGraphModel>
    </diagram>
</mxfile>